<svg id="user-woman" xmlns="http://www.w3.org/2000/svg" width="154.5" height="154.5" viewBox="0 0 154.5 154.5">
  <path id="Path_1819" data-name="Path 1819" d="M15.976,113.243l26.565-11.392c1.44-.72,2.612-3.046,3.437-4.7a2.269,2.269,0,0,0-2.041-3.262H25.15a47.578,47.578,0,0,1-12.031-2.915c-3.07-1.318-4.125-3.058-2.207-5.789,5.612-7.987,17.211-26.8,17.587-46.219,0,0,.644-29.9,30.142-30.142,17.208.143,25.335,10.27,29.122,18.686a43.211,43.211,0,0,1,3.355,14.952C92.343,60.97,101.77,77.9,106.163,85.139a5.239,5.239,0,0,1-1.694,7.2,14.626,14.626,0,0,1-8.987,1.548H76.569a2.122,2.122,0,0,0-1.213,3.728,27.847,27.847,0,0,0,2.921,2.108l22.1,13.372a19.131,19.131,0,0,1,7.466,7.372,77.181,77.181,0,0,1-98.7-1.4A19.057,19.057,0,0,1,15.976,113.243Z" transform="translate(17.51 16.889)" fill="#f7f9f9"/>
  <g id="Group_132" data-name="Group 132">
    <path id="Path_1820" data-name="Path 1820" d="M77.25,0A77.231,77.231,0,0,0,26.825,135.744a19.01,19.01,0,0,1,6.664-5.612l26.565-11.392c1.44-.72,2.612-3.046,3.437-4.7a2.269,2.269,0,0,0-2.041-3.262H42.662a47.578,47.578,0,0,1-12.031-2.915c-3.07-1.318-4.125-3.058-2.207-5.789,5.612-7.987,17.211-26.8,17.587-46.219,0,0,.644-29.9,30.142-30.142,17.208.143,25.335,10.27,29.122,18.686a43.211,43.211,0,0,1,3.355,14.952c1.224,18.514,10.652,35.448,15.045,42.683a5.239,5.239,0,0,1-1.694,7.2,14.636,14.636,0,0,1-8.99,1.548H94.079a2.122,2.122,0,0,0-1.213,3.728,27.849,27.849,0,0,0,2.921,2.108l22.1,13.372a19.071,19.071,0,0,1,7.419,7.3c.076.073.16.14.233.219A77.218,77.218,0,0,0,77.25,0Z" fill="#bec2cc"/>
  </g>
</svg>
