<svg id="user-man" xmlns="http://www.w3.org/2000/svg" width="157.494" height="157.5" viewBox="0 0 157.494 157.5">
  <path id="Path_1817" data-name="Path 1817" d="M36.705,107.7l-23.5,12.817A21.116,21.116,0,0,0,9.437,123.2a78.7,78.7,0,0,0,101.118.262,20.846,20.846,0,0,0-4.143-2.776L81.251,108.112a9.6,9.6,0,0,1-5.3-8.582V89.657a38,38,0,0,0,2.38-3.061,57.9,57.9,0,0,0,7.822-15.762,7.9,7.9,0,0,0,5.6-7.518V52.779a7.867,7.867,0,0,0-2.633-5.839V31.706S92.249,8,60.146,8,31.172,31.706,31.172,31.706V46.939a7.856,7.856,0,0,0-2.633,5.839V63.316a7.9,7.9,0,0,0,3.643,6.63A52.292,52.292,0,0,0,41.71,89.657v9.628A9.605,9.605,0,0,1,36.705,107.7Z" transform="translate(18.607 15.775)" fill="#f7f9f9"/>
  <g id="Group_130" data-name="Group 130" transform="translate(0 0)">
    <path id="Path_1818" data-name="Path 1818" d="M80.1.012a78.7,78.7,0,0,0-52.02,138.945,20.925,20.925,0,0,1,3.735-2.657l23.5-12.817a9.6,9.6,0,0,0,5-8.425V105.43a52.243,52.243,0,0,1-9.527-19.711,7.9,7.9,0,0,1-3.643-6.63V68.551a7.867,7.867,0,0,1,2.633-5.839V47.479S46.644,23.774,78.747,23.774s28.974,23.705,28.974,23.705V62.712a7.856,7.856,0,0,1,2.633,5.839V79.089a7.9,7.9,0,0,1-5.6,7.518,57.9,57.9,0,0,1-7.822,15.762,38,38,0,0,1-2.38,3.061V115.3a9.592,9.592,0,0,0,5.3,8.582l25.161,12.579a20.95,20.95,0,0,1,4.131,2.77A78.732,78.732,0,0,0,80.1.012Z" transform="translate(0 0)" fill="#bec2cc"/>
  </g>
</svg>
